<?xml version="1.0" encoding="utf-8"?>
<!-- Generator: Adobe Illustrator 23.0.3, SVG Export Plug-In . SVG Version: 6.00 Build 0)  -->
<svg version="1.1" id="Layer_1" xmlns="http://www.w3.org/2000/svg" xmlns:xlink="http://www.w3.org/1999/xlink" x="0px" y="0px"
	 viewBox="0 0 97.4 89.7" style="enable-background:new 0 0 97.4 89.7;" xml:space="preserve">
<style type="text/css">
	.st0{display:none;}
	.st1{display:inline;}
	.st2{fill:#FFFFFF;}
</style>
<g class="st0">
	<path class="st1" d="M343.8,209.7c0,5.5-0.1,10.9,0,16.4c0.1,2.5-0.9,3.2-3.2,3.2c-7.3-0.2-6.2,0.6-6.3-6.2
		c-0.1-8.1,0-16.2-0.1-24.3c0-1.4-0.8-3.1-1.8-3.8c-0.6-0.4-2.5,0.7-3.7,1.3c-4.3,2.3-8.6,4.6-12.8,7c-4.3,2.5-8.5,5.4-13,7.4
		c-4.4,2-8.2,7.1-13.9,4.2c-4.7-2.3-9.2-5-13.7-7.6c-4.1-2.3-8.2-4.6-12.4-6.9c-4.7-2.6-9.5-5.2-14.2-7.9c-1.7-1-3.2-2.4-4.8-3.6
		c1.6-1.2,3.1-2.4,4.8-3.5c5-3.3,10.2-6.5,15.2-9.9c5-3.4,9.9-6.9,14.9-10.4c3.2-2.2,6.4-4.7,9.8-6.5c4.8-2.6,8.4,0.7,12.1,3.2
		c5.3,3.6,10.7,7.2,16,10.8c6.8,4.6,13.6,9.3,20.5,13.9c1,0.7,2.4,0.9,3.4,1.7c2.2,1.7,3.7,3.5,3.4,6.7
		C343.5,199.8,343.8,204.8,343.8,209.7z"/>
	<path class="st1" d="M264.1,222.8c0-1.2-0.1-2.3,0-3.5c0.1-0.9,0.4-1.8,0.5-2.7c1.1,0.3,2.3,0.3,3.3,0.9c4.5,2.6,9,5.4,13.5,8.2
		c2.2,1.4,4.4,2.7,6.5,4.2c2.9,2.1,5.6,2,8.6,0.1c5.9-3.7,12-7.1,17.9-10.7c1.3-0.8,2.4-1.9,3.8-2.5c0.5-0.2,2.1,0.8,2.1,1.3
		c0.2,3.1,0.5,6.3-0.1,9.3c-0.3,1.6-2,3.1-3.5,4.1c-3.3,2.2-6.9,4.1-10.4,6.1c-3.8,2.2-7.5,4.5-11.5,6.4c-3,1.5-5.7,0.2-8.4-1.6
		c-4-2.7-8.2-4.9-12.3-7.4c-3.2-1.9-6.7-3.6-9.3-6.1c-1.3-1.2-0.8-4.1-1.2-6.3C263.8,222.9,263.9,222.8,264.1,222.8z"/>
</g>
<g>
	<polygon class="st2" points="48.7,75.9 20.8,59.9 20.8,73.6 48.7,89.7 76.6,73.6 76.6,59.9 	"/>
	<polygon class="st2" points="48.7,0 0,33 48.7,61 88,38.4 88,73.3 97.4,73.3 97.4,33 	"/>
</g>
</svg>
